<?xml version="1.0" encoding="utf-8"?>
<!-- Generator: Adobe Illustrator 25.0.1, SVG Export Plug-In . SVG Version: 6.00 Build 0)  -->
<svg version="1.1" id="Capa_1" xmlns="http://www.w3.org/2000/svg" xmlns:xlink="http://www.w3.org/1999/xlink" x="0px" y="0px"
	 viewBox="44 229 712 142" enable-background="new 0 0 800 600" xml:space="preserve">
<path fill="none" stroke="#FFFFFF" stroke-width="13" stroke-miterlimit="10" d="M332.29,259.65"/>
<path fill="#FFFFFF" d="M383.97,259.65"/>
<path fill="#FFFFFF" d="M379.7,263.98h-43.43c-2.36,0-4.27-1.91-4.27-4.27l0,0c0-2.36,1.91-4.27,4.27-4.27h43.43
	c2.36,0,4.27,1.91,4.27,4.27l0,0C383.97,262.07,382.06,263.98,379.7,263.98z"/>
<path fill="#0465FF" d="M688.01,336.56v18.43c0,0.98-0.79,1.77-1.76,1.77c-0.49,0-0.94-0.2-1.26-0.53c-0.3-0.08-0.57-0.24-0.8-0.48
	l-13.85-14.93v14.17c0,0.98-0.8,1.77-1.77,1.77c-0.98,0-1.77-0.79-1.77-1.77v-18.43c0-0.98,0.79-1.77,1.77-1.77
	c0.07,0,0.13,0,0.2,0.02c0.01,0,0.01,0,0.02,0c0.04,0,0.09,0,0.13,0.02c0.43,0.02,0.84,0.2,1.16,0.54l14.4,15.52v-14.33
	c0-0.98,0.79-1.77,1.77-1.77C687.22,334.79,688.01,335.58,688.01,336.56z"/>
<path fill="#FFFFFF" d="M531.35,263.92h-46.69c-2.36,0-4.27-1.91-4.27-4.27l0,0c0-2.36,1.91-4.27,4.27-4.27h46.69
	c2.36,0,4.27,1.91,4.27,4.27l0,0C535.62,262.01,533.71,263.92,531.35,263.92z"/>
<path fill="#FFFFFF" d="M597.03,291.4c7.71-2.11,13.36-9.16,13.36-17.53c0-10.03-8.13-18.17-18.17-18.17v0.02
	c-0.13-0.01-0.27-0.02-0.4-0.02H561.3c-2.56,0-4.66,2-4.81,4.53c-0.01,0.09-0.01,0.19-0.01,0.29v44.04c0,2.31,1.88,4.18,4.18,4.18
	h0.18c2.31,0,4.18-1.87,4.18-4.18v-12.51h20.9l15.24,16.23c0.5,0.54,1.35,0.56,1.89,0.06l3.02-2.84c1.23-1.16,1.29-3.09,0.14-4.31
	L597.03,291.4z M565.02,264.24h26.8c0.28,0,0.56-0.03,0.83-0.08v0.08c5.1,0,9.23,4.31,9.23,9.63c0,5.31-4.1,9.61-9.18,9.64h-27.68
	V264.24z"/>
<path fill="#FFFFFF" d="M561.3,255.7c-2.56,0-4.66,2-4.81,4.53c-0.01-0.09-0.01-0.17-0.01-0.26c0-1.18,0.48-2.25,1.25-3.02
	c0.77-0.77,1.84-1.25,3.02-1.25H561.3z"/>
<path fill="#FFFFFF" d="M511.88,259.97v44.5c0,2.36-1.91,4.27-4.27,4.27l0,0c-2.36,0-4.27-1.91-4.27-4.27v-44.5
	c0-2.36,1.91-4.27,4.27-4.27l0,0C509.97,255.7,511.88,257.61,511.88,259.97z"/>
<path fill="#0465FF" d="M521.35,336.68c0,0.98-0.79,1.77-1.76,1.77h-8.05v16.75c0,0.98-0.79,1.77-1.76,1.77
	c-0.98,0-1.77-0.79-1.77-1.77v-16.75h-7.71c-0.98,0-1.77-0.79-1.77-1.77c0-0.97,0.79-1.76,1.77-1.76h19.29
	C520.56,334.92,521.35,335.71,521.35,336.68z"/>
<path fill="#0465FF" d="M562.87,336.62v18.62c0,0.91-0.74,1.65-1.65,1.65l0,0c-0.91,0-1.65-0.74-1.65-1.65v-18.62
	c0-0.91,0.74-1.65,1.65-1.65l0,0C562.13,334.97,562.87,335.71,562.87,336.62z"/>
<path fill="#FFFFFF" d="M754.03,304.39c0,1.21-0.49,2.31-1.29,3.1c-0.79,0.79-1.89,1.28-3.1,1.28h-34.99c-0.35,0-0.7-0.04-1.03-0.13
	c-0.33,0.09-0.69,0.13-1.05,0.13c-1.21,0-2.31-0.49-3.11-1.29c-0.8-0.8-1.29-1.9-1.29-3.11v-44.84c0-2.43,1.97-4.41,4.4-4.41
	c1.22,0,2.32,0.5,3.12,1.29c0.8,0.8,1.29,1.91,1.29,3.12V300h32.66C752.06,300,754.03,301.96,754.03,304.39z"/>
<path fill="#0465FF" d="M402.74,355.31c0,0.97-0.79,1.76-1.77,1.76h-14.11c-0.14,0-0.29-0.02-0.42-0.06
	c-0.13,0.04-0.28,0.06-0.42,0.06c-0.98,0-1.78-0.79-1.78-1.77v-18.09c0-0.98,0.8-1.77,1.78-1.77c0.98,0,1.78,0.79,1.78,1.77v16.33
	h13.17C401.95,353.54,402.74,354.33,402.74,355.31z"/>
<path fill="#FFFFFF" d="M416.7,259.57v45.1c0,2.39-1.94,4.33-4.33,4.33l0,0c-2.39,0-4.33-1.94-4.33-4.33v-45.1
	c0-2.39,1.94-4.33,4.33-4.33l0,0C414.76,255.25,416.7,257.18,416.7,259.57z"/>
<path fill="#FFFFFF" d="M458.61,259.24v45.78c0,2.2-1.79,3.99-3.99,3.99l0,0c-2.2,0-3.99-1.79-3.99-3.99v-45.78
	c0-2.2,1.79-3.99,3.99-3.99l0,0C456.82,255.25,458.61,257.03,458.61,259.24z"/>
<path fill="#FFFFFF" d="M416.07,256.66l40.85,44.02c1.62,1.74,1.52,4.47-0.23,6.08l-0.57,0.53c-1.43,1.32-3.65,1.24-4.98-0.19
	l-41.38-44.59c-1.62-1.74-1.52-4.47,0.23-6.08l0,0C411.73,254.82,414.45,254.92,416.07,256.66z"/>
<path fill="#FFFFFF" d="M379.7,286.49h-43.43c-2.36,0-4.27-1.91-4.27-4.27v0c0-2.36,1.91-4.27,4.27-4.27h43.43
	c2.36,0,4.27,1.91,4.27,4.27v0C383.97,284.58,382.06,286.49,379.7,286.49z"/>
<path fill="#FFFFFF" d="M379.7,308.48h-43.43c-2.36,0-4.27-1.91-4.27-4.27l0,0c0-2.36,1.91-4.27,4.27-4.27h43.43
	c2.36,0,4.27,1.91,4.27,4.27l0,0C383.97,306.57,382.06,308.48,379.7,308.48z"/>
<circle fill="#0465FF" cx="659.46" cy="296.83" r="6.41"/>
<ellipse transform="matrix(0.9999 -0.0165 0.0165 0.9999 -5.6109 10.1658)" fill="none" stroke="#0465FF" stroke-width="3" stroke-miterlimit="10" cx="615.08" cy="346.12" rx="11.07" ry="10.23"/>
<ellipse transform="matrix(0.9999 -0.0165 0.0165 0.9999 -5.646 5.5135)" fill="none" stroke="#0465FF" stroke-width="3" stroke-miterlimit="10" cx="332.29" cy="345.93" rx="11.07" ry="10.23"/>
<path fill="#FFFFFF" d="M305.86,308.48h-45.61c-2.36,0-4.27-1.91-4.27-4.27s1.91-4.27,4.27-4.27h45.61
	C311.39,299.86,311.41,308.56,305.86,308.48z"/>
<path fill="#FFFFFF" d="M302.65,257.44l-44.6,42.91c-1.69,1.63-1.74,4.32-0.12,6.01h0c1.63,1.69,4.32,1.74,6.01,0.12l44.6-42.91
	c1.69-1.63,1.74-4.32,0.12-6.01v0C307.04,255.86,304.34,255.81,302.65,257.44z"/>
<path fill="#FFFFFF" d="M305.82,264.41h-45.41c-2.44,0-4.43-2.01-4.43-4.48l0,0c0-2.48,1.98-4.48,4.43-4.48h44.98
	c2.44,0,4.43,2.01,4.43,4.48v0.11c0,0.22-0.05,0.43-0.14,0.63C308.88,262.39,307.9,264.41,305.82,264.41z"/>
<path fill="#FFFFFF" d="M688.47,308.13c-2.31,1.34-5.26,0.54-6.6-1.77l-22.81-39.5l-21.17,38.79c-1.57,2.88-5.18,3.94-8.07,2.37
	l-0.21-0.12c-1.25-0.68-1.71-2.24-1.03-3.49l25.24-46.22c1.53-2.8,5.04-3.83,7.83-2.3c0.18,0.1,0.36,0.22,0.51,0.36
	c0.63,0.4,1.18,0.96,1.58,1.65l26.09,45.19C690.85,304.85,690.24,307.11,688.47,308.13z"/>
<path fill="none" stroke="#FFFFFF" stroke-miterlimit="10" d="M441.94,344"/>
<path opacity="0.47" fill="#0962FF" d="M458.05,348.13"/>
<path fill="#0962FF" d="M441.52,352.45c1.64,2.98,5.11,5.04,9.13,5.04c5.6,0,9.51-3.35,10.11-9.37v-11.8c0-0.37-0.15-0.71-0.4-0.96
	c-0.24-0.25-0.58-0.4-0.96-0.4c-0.75,0-1.36,0.61-1.36,1.36l-0.04,10.21c-0.01,2.46-1.09,4.85-3.07,6.31
	c-1.18,0.87-2.58,1.39-4.02,1.39c-2.35,0-4.4-1.13-5.89-3.12c-0.77-1.03-1.17-2.31-1.17-3.6v-11.15c0-0.47-0.19-0.89-0.5-1.19
	c-0.3-0.3-0.73-0.49-1.19-0.49c-0.92,0-1.68,0.75-1.68,1.68v11.97c0,0.3,0.02,0.61,0.05,0.91l0.02,0.2
	C440.68,350.52,441.01,351.53,441.52,352.45z"/>
<path fill="#1470FE" d="M738.59,357.62c-3.47,0.18-6.62-0.7-9.57-2.34c-1.08-0.6-1.9-1.34-1.07-2.69c0.82-1.34,1.83-1.26,3.05-0.48
	c3.74,2.38,7.87,2.27,12.01,1.56c1.61-0.27,3.18-1.03,3.17-2.97c-0.02-1.92-1.7-2.36-3.19-2.6c-2.6-0.41-5.23-0.63-7.85-0.89
	c-1.44-0.15-2.81-0.52-4.1-1.17c-3.92-1.98-4.22-7.4-0.55-9.81c4.02-2.65,13.42-2.38,17.32,0.49c0.93,0.68,1.58,1.38,0.88,2.63
	c-0.75,1.33-1.6,0.96-2.62,0.37c-3.81-2.19-7.87-2.32-12.02-1.28c-1.39,0.35-2.65,1.07-2.54,2.7c0.11,1.75,1.5,2.27,3.03,2.43
	c2.84,0.3,5.7,0.52,8.53,0.91c4.87,0.66,7.16,3.18,6.68,7.1c-0.29,2.34-1.64,3.8-3.7,4.72
	C743.63,357.36,741.12,357.74,738.59,357.62z"/>
<path fill="#1470FE" d="M270.24,357.05c-3.47,0.18-6.62-0.7-9.57-2.34c-1.08-0.6-1.9-1.34-1.07-2.69c0.82-1.34,1.83-1.26,3.05-0.48
	c3.74,2.38,7.87,2.27,12.01,1.56c1.61-0.27,3.18-1.03,3.17-2.97c-0.02-1.92-1.7-2.36-3.19-2.6c-2.6-0.41-5.23-0.63-7.85-0.89
	c-1.44-0.15-2.81-0.52-4.1-1.17c-3.92-1.98-4.22-7.4-0.55-9.81c4.02-2.65,13.42-2.38,17.32,0.49c0.93,0.68,1.58,1.38,0.88,2.63
	c-0.75,1.33-1.6,0.96-2.62,0.37c-3.81-2.19-7.87-2.32-12.02-1.28c-1.39,0.35-2.65,1.07-2.54,2.7c0.11,1.75,1.5,2.27,3.03,2.43
	c2.84,0.3,5.7,0.52,8.53,0.91c4.87,0.66,7.16,3.18,6.68,7.1c-0.29,2.34-1.64,3.8-3.7,4.72
	C275.29,356.79,272.77,357.17,270.24,357.05z"/>
<g>
	
		<linearGradient id="SVGID_1_" gradientUnits="userSpaceOnUse" x1="48.1607" y1="808.6059" x2="199.4431" y2="808.6059" gradientTransform="matrix(1 0 0 1 0 -528)">
		<stop  offset="0.0925" style="stop-color:#018BFF"/>
		<stop  offset="0.2441" style="stop-color:#0188FF"/>
		<stop  offset="0.2892" style="stop-color:#0182FF"/>
		<stop  offset="0.3981" style="stop-color:#0180FF"/>
		<stop  offset="0.5218" style="stop-color:#0271FF"/>
		<stop  offset="0.5494" style="stop-color:#0269FF"/>
		<stop  offset="0.6071" style="stop-color:#0360FF"/>
		<stop  offset="0.6855" style="stop-color:#035DFF"/>
		<stop  offset="0.8259" style="stop-color:#035BFF"/>
		<stop  offset="0.9077" style="stop-color:#0352FF"/>
		<stop  offset="0.9639" style="stop-color:#0447FF"/>
	</linearGradient>
	<path fill="url(#SVGID_1_)" d="M198.09,255.84c0.83-2.92,1.06-6.01,0.68-9.27c-1-8.66-8.61-15.36-17.42-15.36
		c-35.08,0-70.13,0-105.21,0c-9.02,0-16.07,3.94-21.02,11.19c-2.68,3.94-4.66,8.34-6.96,12.53c-0.21,0.35-0.29,0.76-0.5,1.31
		c0.68,0,1.15,0,1.62,0c17.92,0,35.85,0,53.77,0c17.6,0,35.17,0,52.77,0.03c0.25,0,0.5,0,0.75,0.02c0.61,0.06,1.23,0.18,1.75,0.44
		c2.86,1.46,3.71,4.49,2,7.55c-0.83,1.46-1.95,2.74-3.01,4.02c-8.64,10.38-17.3,20.76-25.94,31.16
		c-7.16,8.63-14.3,17.29-21.43,25.92c-1.21,1.46-2.39,2.92-3.68,4.52c0.47,0.03,0.77,0.09,1.03,0.09c8.25,0,16.48,0.03,24.73,0
		c4.39-0.03,7.99-1.78,10.79-5.1c5.95-7.05,11.88-14.14,17.8-21.25c10.94-13.15,21.84-26.32,32.81-39.44
		c2.18-2.62,3.71-5.42,4.57-8.42"/>
	
		<linearGradient id="SVGID_2_" gradientUnits="userSpaceOnUse" x1="59.5255" y1="816.4214" x2="160.5155" y2="922.055" gradientTransform="matrix(1 0 0 1 0 -528)">
		<stop  offset="0.3155" style="stop-color:#018BFF"/>
		<stop  offset="0.3614" style="stop-color:#027DFF"/>
		<stop  offset="0.4475" style="stop-color:#0359FF"/>
		<stop  offset="0.4858" style="stop-color:#0447FF"/>
	</linearGradient>
	<path fill="url(#SVGID_2_)" d="M127.88,276.94c-0.62,0.79-1.12,1.43-1.68,2.08c-10.33,12.18-20.66,24.36-31.02,36.55
		c-5.45,6.39-10.92,12.78-16.39,19.17c-2.08,2.44-2.44,5.6-0.9,7.8c1.24,1.76,3.06,2.38,5.16,2.38c14.34,0,28.66,0,42.97,0
		c21.56,0,43.09,0,64.64,0c0.34,0,0.67,0,1.26,0c-0.9,1.6-1.68,3.06-2.55,4.47c-1.8,2.9-3.51,5.85-5.45,8.66
		c-3.2,4.66-7.35,8.26-13.02,9.88c-1.77,0.49-3.65,0.81-5.47,0.81c-32.9,0.05-65.79,0.03-98.69,0.05c-4.1,0-7.97-0.76-11.42-2.87
		c-6.54-4.01-9.49-9.94-9.35-17.3c0.11-6.06,2.58-11.29,6.62-15.92c6.15-7.01,12.18-14.13,18.27-21.2
		c7.72-8.96,15.44-17.92,23.16-26.88c0.84-0.97,1.68-1.98,2.53-2.98c2.55-3,5.81-4.68,9.82-4.74c6.79-0.08,13.59-0.03,20.38-0.03
		C127.07,276.83,127.37,276.89,127.88,276.94z"/>
</g>
</svg>
